<mxfile host="app.diagrams.net" modified="2024-04-22T05:09:25.847Z" agent="Mozilla/5.0 (Windows NT 10.0; Win64; x64) AppleWebKit/537.36 (KHTML, like Gecko) Chrome/124.0.0.0 Safari/537.36" version="22.1.21" etag="isl4WAMPFICWltwSQymo" type="github">
  <diagram name="Page-1" id="nbz6EicZmHk7i7a8qjGY">
    <mxGraphModel>
      <root>
        <mxCell id="0" />
        <mxCell id="1" parent="0" />
      </root>
    </mxGraphModel>
  </diagram>
</mxfile>
